<svg xmlns="http://www.w3.org/2000/svg">
  <defs>
    <linearGradient id="apple-music-gradient" x1="3" y1="2" x2="21" y2="22" gradientUnits="userSpaceOnUse">
      <stop stop-color="#ff4b7d"/>
      <stop offset="0.52" stop-color="#fa2d55"/>
      <stop offset="1" stop-color="#7c3aed"/>
    </linearGradient>
  </defs>

  <symbol id="openai" viewBox="0 0 24 24">
    <path fill="currentColor" d="M22.2819 9.8211a5.9847 5.9847 0 0 0-.5157-4.9108 6.0462 6.0462 0 0 0-6.5098-2.9A6.0651 6.0651 0 0 0 4.9807 4.1818a5.9847 5.9847 0 0 0-3.9977 2.9 6.0462 6.0462 0 0 0 .7427 7.0966 5.98 5.98 0 0 0 .511 4.9107 6.051 6.051 0 0 0 6.5146 2.9001A5.9847 5.9847 0 0 0 13.2599 24a6.0557 6.0557 0 0 0 5.7718-4.2058 5.9894 5.9894 0 0 0 3.9977-2.9001 6.0557 6.0557 0 0 0-.7475-7.0729zm-9.022 12.6081a4.4755 4.4755 0 0 1-2.8764-1.0408l.1419-.0804 4.7783-2.7582a.7948.7948 0 0 0 .3927-.6813v-6.7369l2.02 1.1686a.071.071 0 0 1 .038.052v5.5826a4.504 4.504 0 0 1-4.4945 4.4944zm-9.6607-4.1254a4.4708 4.4708 0 0 1-.5346-3.0137l.142.0852 4.783 2.7582a.7712.7712 0 0 0 .7806 0l5.8428-3.3685v2.3324a.0804.0804 0 0 1-.0332.0615L9.74 19.9502a4.4992 4.4992 0 0 1-6.1408-1.6464zM2.3408 7.8956a4.485 4.485 0 0 1 2.3655-1.9728V11.6a.7664.7664 0 0 0 .3879.6765l5.8144 3.3543-2.0201 1.1685a.0757.0757 0 0 1-.071 0l-4.8303-2.7865A4.504 4.504 0 0 1 2.3408 7.872zm16.5963 3.8558L13.1038 8.364 15.1192 7.2a.0757.0757 0 0 1 .071 0l4.8303 2.7913a4.4944 4.4944 0 0 1-.6765 8.1042v-5.6772a.79.79 0 0 0-.407-.667zm2.0107-3.0231l-.142-.0852-4.7735-2.7818a.7759.7759 0 0 0-.7854 0L9.409 9.2297V6.8974a.0662.0662 0 0 1 .0284-.0615l4.8303-2.7866a4.4992 4.4992 0 0 1 6.6802 4.66zM8.3065 12.863l-2.02-1.1638a.0804.0804 0 0 1-.038-.0567V6.0742a4.4992 4.4992 0 0 1 7.3757-3.4537l-.142.0805L8.704 5.459a.7948.7948 0 0 0-.3927.6813zm1.0976-2.3654l2.602-1.4998 2.6069 1.4998v2.9994l-2.5974 1.4997-2.6067-1.4997Z"/>
  </symbol>

  <symbol id="notion" viewBox="0 0 24 24">
    <path fill="currentColor" d="M4.459 4.208c.746.606 1.026.56 2.428.466l13.215-.793c.28 0 .047-.28-.046-.326L17.86 1.968c-.42-.326-.981-.7-2.055-.607L3.01 2.295c-.466.046-.56.28-.374.466zm.793 3.08v13.904c0 .747.373 1.027 1.214.98l14.523-.84c.841-.046.935-.56.935-1.167V6.354c0-.606-.233-.933-.748-.887l-15.177.887c-.56.047-.747.327-.747.933zm14.337.745c.093.42 0 .84-.42.888l-.7.14v10.264c-.608.327-1.168.514-1.635.514-.748 0-.935-.234-1.495-.933l-4.577-7.186v6.952L12.21 19s0 .84-1.168.84l-3.222.186c-.093-.186 0-.653.327-.746l.84-.233V9.854L7.822 9.76c-.094-.42.14-1.026.793-1.073l3.456-.233 4.764 7.279v-6.44l-1.215-.139c-.093-.514.28-.887.747-.933zM1.936 1.035l13.31-.98c1.634-.14 2.055-.047 3.082.7l4.249 2.986c.7.513.934.653.934 1.213v16.378c0 1.026-.373 1.634-1.68 1.726l-15.458.934c-.98.047-1.448-.093-1.962-.747l-3.129-4.06c-.56-.747-.793-1.306-.793-1.96V2.667c0-.839.374-1.54 1.447-1.632z"/>
  </symbol>

  <symbol id="gmail" viewBox="0 0 24 24">
    <path fill="currentColor" d="M24 5.457v13.909c0 .904-.732 1.636-1.636 1.636h-3.819V11.73L12 16.64l-6.545-4.91v9.273H1.636A1.636 1.636 0 0 1 0 19.366V5.457c0-2.023 2.309-3.178 3.927-1.964L5.455 4.64 12 9.548l6.545-4.91 1.528-1.145C21.69 2.28 24 3.434 24 5.457z"/>
  </symbol>

  <symbol id="calendar" viewBox="0 0 24 24">
    <path fill="currentColor" d="M18.316 5.684H24v12.632h-5.684V5.684zM5.684 24h12.632v-5.684H5.684V24zM18.316 5.684V0H1.895A1.894 1.894 0 0 0 0 1.895v16.421h5.684V5.684h12.632zm-7.207 6.25v-.065c.272-.144.5-.349.687-.617s.279-.595.279-.982c0-.379-.099-.72-.3-1.025a2.05 2.05 0 0 0-.832-.714 2.703 2.703 0 0 0-1.197-.257c-.6 0-1.094.156-1.481.467-.386.311-.65.671-.793 1.078l1.085.452c.086-.249.224-.461.413-.633.189-.172.445-.257.767-.257.33 0 .602.088.816.264a.86.86 0 0 1 .322.703c0 .33-.12.589-.36.778-.24.19-.535.284-.886.284h-.567v1.085h.633c.407 0 .748.109 1.02.327.272.218.407.499.407.843 0 .336-.129.614-.387.832s-.565.327-.924.327c-.351 0-.651-.103-.897-.311-.248-.208-.422-.502-.521-.881l-1.096.452c.178.616.505 1.082.977 1.401.472.319.984.478 1.538.477a2.84 2.84 0 0 0 1.293-.291c.382-.193.684-.458.902-.794.218-.336.327-.72.327-1.149 0-.429-.115-.797-.344-1.105a2.067 2.067 0 0 0-.881-.689zm2.093-1.931l.602.913L15 10.045v5.744h1.187V8.446h-.827l-2.158 1.557zM22.105 0h-3.289v5.184H24V1.895A1.894 1.894 0 0 0 22.105 0zm-3.289 23.5l4.684-4.684h-4.684V23.5zM0 22.105C0 23.152.848 24 1.895 24h3.289v-5.184H0v3.289z"/>
  </symbol>

  <symbol id="contacts" viewBox="0 0 24 24">
    <rect x="2" y="2" width="20" height="20" rx="5" fill="#1A73E8"/>
    <path d="M14.7 9.15a3.15 3.15 0 1 1-6.3 0 3.15 3.15 0 0 1 6.3 0Z" fill="#fff"/>
    <path d="M5.5 18.65c.6-3.1 3.05-4.8 6.05-4.8s5.45 1.7 6.05 4.8H5.5Z" fill="#fff"/>
    <path d="M18.5 4.1h2.1v5.25h-2.1z" fill="#34A853"/>
    <path d="M18.5 9.35h2.1v5.25h-2.1z" fill="#FBBC04"/>
    <path d="M18.5 14.6h2.1v5.25h-2.1z" fill="#EA4335"/>
  </symbol>

  <symbol id="drive" viewBox="0 0 24 24">
    <path fill="#0F9D58" d="M8.2 2.1 1.2 14.25l3.35 5.8 7-12.1z"/>
    <path fill="#F4B400" d="M8.2 2.1h7.1l7 12.15h-7.1z"/>
    <path fill="#4285F4" d="M4.55 20.05 8 14.1h14.3l-3.45 5.95z"/>
  </symbol>

  <symbol id="github" viewBox="0 0 24 24">
    <path fill="currentColor" d="M12 .297c-6.63 0-12 5.373-12 12 0 5.303 3.438 9.8 8.205 11.385.6.113.82-.258.82-.577 0-.285-.01-1.04-.015-2.04-3.338.724-4.042-1.61-4.042-1.61C4.422 18.07 3.633 17.7 3.633 17.7c-1.087-.744.084-.729.084-.729 1.205.084 1.838 1.236 1.838 1.236 1.07 1.835 2.809 1.305 3.495.998.108-.776.417-1.305.76-1.605-2.665-.3-5.466-1.332-5.466-5.93 0-1.31.465-2.38 1.235-3.22-.135-.303-.54-1.523.105-3.176 0 0 1.005-.322 3.3 1.23.96-.267 1.98-.399 3-.405 1.02.006 2.04.138 3 .405 2.28-1.552 3.285-1.23 3.285-1.23.645 1.653.24 2.873.12 3.176.765.84 1.23 1.91 1.23 3.22 0 4.61-2.805 5.625-5.475 5.92.42.36.81 1.096.81 2.22 0 1.606-.015 2.896-.015 3.286 0 .315.21.69.825.57C20.565 22.092 24 17.592 24 12.297c0-6.627-5.373-12-12-12"/>
  </symbol>

  <symbol id="linkedin" viewBox="0 0 24 24">
    <path fill="currentColor" d="M20.447 20.452h-3.554v-5.569c0-1.328-.027-3.037-1.852-3.037-1.853 0-2.136 1.445-2.136 2.939v5.667H9.351V9h3.414v1.561h.046c.477-.9 1.637-1.85 3.37-1.85 3.601 0 4.267 2.37 4.267 5.455v6.286zM5.337 7.433c-1.144 0-2.063-.926-2.063-2.065 0-1.138.92-2.063 2.063-2.063 1.14 0 2.064.925 2.064 2.063 0 1.139-.925 2.065-2.064 2.065zm1.782 13.019H3.555V9h3.564v11.452zM22.225 0H1.771C.792 0 0 .774 0 1.729v20.542C0 23.227.792 24 1.771 24h20.451C23.2 24 24 23.227 24 22.271V1.729C24 .774 23.2 0 22.222 0h.003z"/>
  </symbol>

  <symbol id="linkedin-ads" viewBox="0 0 24 24">
    <path fill="#0A66C2" d="M16.85 16.85h-2.67v-4.17c0-.99-.02-2.27-1.39-2.27-1.39 0-1.6 1.08-1.6 2.2v4.24H8.53V8.28h2.56v1.17h.03c.36-.67 1.23-1.39 2.53-1.39 2.7 0 3.2 1.78 3.2 4.09v4.7zM5.52 7.1a1.55 1.55 0 1 1 0-3.1 1.55 1.55 0 0 1 0 3.1zm1.34 9.75H4.19V8.28h2.67v8.57z"/>
    <rect x="14.6" y="14.3" width="8.7" height="8.2" rx="2" fill="#F59E0B" stroke="#fff" stroke-width="1"/>
    <path d="M16.6 20v-2.2m2.3 2.2v-3.6m2.3 3.6v-5" stroke="#fff" stroke-width="1.3" stroke-linecap="round"/>
  </symbol>

  <symbol id="docs" viewBox="0 0 24 24"><path fill="currentColor" d="M14.727 6.727H14V0H4.91c-.905 0-1.637.732-1.637 1.636v20.728c0 .904.732 1.636 1.636 1.636h14.182c.904 0 1.636-.732 1.636-1.636V6.727h-6zm-.545 10.455H7.09v-1.364h7.09v1.364zm2.727-3.273H7.091v-1.364h9.818v1.364zm0-3.273H7.091V9.273h9.818v1.363zM14.727 6h6l-6-6v6z"/></symbol>
  <symbol id="sheets" viewBox="0 0 24 24"><path fill="currentColor" d="M11.318 12.545H7.91v-1.909h3.41v1.91zM14.728 0v6h6l-6-6zm1.363 10.636h-3.41v1.91h3.41v-1.91zm0 3.273h-3.41v1.91h3.41v-1.91zM20.727 6.5v15.864c0 .904-.732 1.636-1.636 1.636H4.909a1.636 1.636 0 0 1-1.636-1.636V1.636C3.273.732 4.005 0 4.909 0h9.318v6.5h6.5zm-3.273 2.773H6.545v7.909h10.91v-7.91zm-6.136 4.636H7.91v1.91h3.41v-1.91z"/></symbol>
  <symbol id="slides" viewBox="0 0 24 24"><path fill="currentColor" d="M16.09 15.273H7.91v-4.637h8.18v4.637zm1.728-8.523h2.91v15.614c0 .904-.733 1.636-1.637 1.636H4.909a1.636 1.636 0 0 1-1.636-1.636V1.636C3.273.732 4.005 0 4.909 0h9.068v6.75h3.841zm-.363 2.523H6.545v7.363h10.91V9.273zm-2.728-5.979V6h6.001l-6-6v3.294z"/></symbol>

  <symbol id="spotify" viewBox="0 0 24 24"><path fill="currentColor" d="M12 0C5.4 0 0 5.4 0 12s5.4 12 12 12 12-5.4 12-12S18.66 0 12 0zm5.521 17.34c-.24.359-.66.48-1.021.24-2.82-1.74-6.36-2.101-10.561-1.141-.418.122-.779-.179-.899-.539-.12-.421.18-.78.54-.9 4.56-1.021 8.52-.6 11.64 1.32.42.18.479.659.301 1.02zm1.44-3.3c-.301.42-.841.6-1.262.3-3.239-1.98-8.159-2.58-11.939-1.38-.479.12-1.02-.12-1.14-.6-.12-.48.12-1.021.6-1.141C9.6 9.9 15 10.561 18.72 12.84c.361.181.54.78.241 1.2zm.12-3.36C15.24 8.4 8.82 8.16 5.16 9.301c-.6.179-1.2-.181-1.38-.721-.18-.601.18-1.2.72-1.381 4.26-1.26 11.28-1.02 15.721 1.621.539.3.719 1.02.419 1.56-.299.421-1.02.599-1.559.3z"/></symbol>

  <symbol id="applemusic" viewBox="0 0 24 24">
    <rect x="1" y="1" width="22" height="22" rx="5" fill="url(#apple-music-gradient)"/>
    <path fill="#fff" d="M17.6 5.1v9.4c0 1.8-1.1 3.1-3 3.4-1.5.2-2.7-.6-2.9-1.8-.2-1.3.7-2.5 2.2-2.8.7-.2 1.4-.2 2.1-.4v-4l-6.2 1.3v5.7c0 1.8-1.1 3.1-3 3.4-1.5.2-2.7-.6-2.9-1.8-.2-1.3.7-2.5 2.2-2.8.7-.2 1.4-.2 2.1-.4V7.2c0-.8.4-1.2 1.2-1.4l7-1.5c.8-.2 1.2.1 1.2.8z"/>
  </symbol>

  <symbol id="adobe" viewBox="0 0 24 24"><path fill="currentColor" d="M13.966 22.624l-1.69-4.281H8.122l3.892-9.144 5.662 13.425zM8.884 1.376H0v21.248zm15.116 0h-8.884L24 22.624Z"/></symbol>
  <symbol id="huggingface" viewBox="0 0 24 24"><path fill="currentColor" d="M12.025 1.13c-5.77 0-10.449 4.647-10.449 10.378 0 1.112.178 2.181.503 3.185.064-.222.203-.444.416-.577a.96.96 0 0 1 .524-.15c.293 0 .584.124.84.284.278.173.48.408.71.694.226.282.458.611.684.951v-.014c.017-.324.106-.622.264-.874s.403-.487.762-.543c.3-.047.596.06.787.203s.31.313.4.467c.15.257.212.468.233.542.01.026.653 1.552 1.657 2.54.616.605 1.01 1.223 1.082 1.912.055.537-.096 1.059-.38 1.572.637.121 1.294.187 1.967.187.657 0 1.298-.063 1.921-.178-.287-.517-.44-1.041-.384-1.581.07-.69.465-1.307 1.081-1.913 1.004-.987 1.647-2.513 1.657-2.539.021-.074.083-.285.233-.542.09-.154.208-.323.4-.467a1.08 1.08 0 0 1 .787-.203c.359.056.604.29.762.543s.247.55.265.874v.015c.225-.34.457-.67.683-.952.23-.286.432-.52.71-.694.257-.16.547-.284.84-.285a.97.97 0 0 1 .524.151c.228.143.373.388.43.625l.006.04a10.3 10.3 0 0 0 .534-3.273c0-5.731-4.678-10.378-10.449-10.378M8.327 6.583a1.5 1.5 0 0 1 .713.174 1.487 1.487 0 0 1 .617 2.013c-.183.343-.762-.214-1.102-.094-.38.134-.532.914-.917.71a1.487 1.487 0 0 1 .69-2.803m7.486 0a1.487 1.487 0 0 1 .689 2.803c-.385.204-.536-.576-.916-.71-.34-.12-.92.437-1.103.094a1.487 1.487 0 0 1 .617-2.013 1.5 1.5 0 0 1 .713-.174m-10.68 1.55a.96.96 0 1 1 0 1.921.96.96 0 0 1 0-1.92m13.838 0a.96.96 0 1 1 0 1.92.96.96 0 0 1 0-1.92M8.489 11.458c.588.01 1.965 1.157 3.572 1.164 1.607-.007 2.984-1.155 3.572-1.164.196-.003.305.12.305.454 0 .886-.424 2.328-1.563 3.202-.22-.756-1.396-1.366-1.63-1.32q-.011.001-.02.006l-.044.026-.01.008-.03.024q-.018.017-.035.036l-.032.04a1 1 0 0 0-.058.09l-.014.025q-.049.088-.11.19a1 1 0 0 1-.083.116 1.2 1.2 0 0 1-.173.18q-.035.029-.075.058a1.3 1.3 0 0 1-.251-.243 1 1 0 0 1-.076-.107c-.124-.193-.177-.363-.337-.444-.034-.016-.104-.008-.2.022q-.094.03-.216.087-.06.028-.125.063l-.13.074q-.067.04-.136.086a3 3 0 0 0-.135.096 3 3 0 0 0-.26.219 2 2 0 0 0-.12.121 2 2 0 0 0-.106.128l-.002.002a2 2 0 0 0-.09.132l-.001.001a1.2 1.2 0 0 0-.105.212q-.013.036-.024.073c-1.139-.875-1.563-2.317-1.563-3.203 0-.334.109-.457.305-.454"/></symbol>
  <symbol id="meetup" viewBox="0 0 24 24"><path fill="currentColor" d="M10.405 3.429a5.029 5.029 0 0 0-4.668 3.248 3.33 3.33 0 0 0-1.46.551 3.374 3.374 0 0 0-.94 4.562 3.634 3.634 0 0 0-.605 4.649 3.603 3.603 0 0 0 2.465 1.597c.018.732.238 1.466.686 2.114a3.9 3.9 0 0 0 5.423.992c.068-.047.12-.106.184-.157.987.881 2.47 1.026 3.607.24a2.91 2.91 0 0 0 1.162-1.69 4.238 4.238 0 0 0 2.584-.739 4.274 4.274 0 0 0 1.19-5.789 2.466 2.466 0 0 0 .433-3.308 2.448 2.448 0 0 0-1.316-.934 4.436 4.436 0 0 0-.776-2.873 4.467 4.467 0 0 0-5.195-1.656 5.106 5.106 0 0 0-2.773-.807zm2.24 4.215c.063 0 .124.005.182.014a.901.901 0 0 1 .45.187c.169.134.273.241.432.393.24.227.414.089.534.02.208-.122.369-.219.984-.208.633.011 1.363.237 1.514 1.317.168 1.199-1.966 4.289-1.817 5.722.106 1.01 1.815.299 1.96 1.22.186 1.198-2.136.753-2.667.493-.832-.408-1.337-1.34-1.12-2.26.16-.688 1.7-3.498 1.757-3.93.059-.44-.177-.476-.324-.484-.19-.01-.34.081-.526.362-.169.255-2.082 4.085-2.248 4.398-.296.56-.67.694-1.044.674-.548-.029-.798-.32-.72-.848.047-.31 1.26-3.049 1.323-3.476.039-.265-.013-.546-.275-.68-.263-.135-.572.07-.664.227-.128.215-1.848 4.706-2.032 5.038-.316.576-.65.76-1.152.784-1.186.056-2.065-.92-1.678-2.116.173-.532 1.316-4.571 1.895-5.599.389-.69 1.468-1.216 2.217-.892.387.167.925.437 1.084.507.366.163.759-.277.913-.412.155-.134.302-.276.49-.357.142-.06.343-.095.532-.094z"/></symbol>
  <symbol id="booking" viewBox="0 0 24 24"><path fill="currentColor" d="M24 0H0v24h24ZM8.575 6.563h2.658c2.108 0 3.473 1.15 3.473 2.898 0 1.15-.575 1.82-.91 2.108l-.287.263.335.192c.815.479 1.318 1.389 1.318 2.395 0 1.988-1.51 3.257-3.857 3.257H7.449V7.713c0-.623.503-1.126 1.126-1.15zm1.7 1.868c-.479.024-.694.264-.694.79v1.893h1.676c.958 0 1.294-.743 1.294-1.365 0-.815-.503-1.318-1.318-1.318zm-.096 4.36c-.407.071-.598.31-.598.79v2.251h1.868c.934 0 1.509-.55 1.509-1.533 0-.934-.599-1.509-1.51-1.509zm7.737 2.394c.743 0 1.341.599 1.341 1.342a1.34 1.34 0 0 1-1.341 1.341 1.355 1.355 0 0 1-1.341-1.341c0-.743.598-1.342 1.34-1.342z"/></symbol>
  <symbol id="render" viewBox="0 0 24 24"><path fill="currentColor" d="M18.263.007c-3.121-.147-5.744 2.109-6.192 5.082-.018.138-.045.272-.067.405-.696 3.703-3.936 6.507-7.827 6.507-1.388 0-2.691-.356-3.825-.979a.2024.2024 0 0 0-.302.178V24H12v-8.999c0-1.656 1.338-3 2.987-3h2.988c3.382 0 6.103-2.817 5.97-6.244-.12-3.084-2.61-5.603-5.682-5.75"/></symbol>
  <symbol id="revolut" viewBox="0 0 24 24"><path fill="currentColor" d="M20.9133 6.9566C20.9133 3.1208 17.7898 0 13.9503 0H2.424v3.8605h10.9782c1.7376 0 3.177 1.3651 3.2087 3.043.016.84-.2994 1.633-.8878 2.2324-.5886.5998-1.375.9303-2.2144.9303H9.2322a.2756.2756 0 0 0-.2755.2752v3.431c0 .0585.018.1142.052.1612L16.2646 24h5.3114l-7.2727-10.094c3.6625-.1838 6.61-3.2612 6.61-6.9494zM6.8943 5.9229H2.424V24h4.4704z"/></symbol>
</svg>
