<svg xmlns="http://www.w3.org/2000/svg" width="760" height="620" viewBox="0 0 760 620" fill="none"><defs><linearGradient id="g" x1="72" y1="60" x2="690" y2="560"><stop stop-color="#fff7ed"/><stop offset=".5" stop-color="#fed7aa"/><stop offset="1" stop-color="#fdba74"/></linearGradient><filter id="s"><feDropShadow dx="0" dy="18" stdDeviation="22" flood-color="#7c2d12" flood-opacity=".18"/></filter></defs><rect x="38" y="28" width="684" height="564" rx="52" fill="url(#g)"/><g stroke="#c2410c" stroke-width="3" opacity=".42"><path d="M130 144L286 100L402 196L588 118L642 286L524 402L628 512L420 532L288 424L130 486L102 310L286 100M402 196L288 424M588 118L524 402M642 286L420 532M102 310L402 196"/></g><g filter="url(#s)"><g fill="#9a3412"><circle cx="130" cy="144" r="18"/><circle cx="402" cy="196" r="26"/><circle cx="642" cy="286" r="22"/><circle cx="420" cy="532" r="20"/></g><g fill="#ea580c"><circle cx="286" cy="100" r="30"/><circle cx="588" cy="118" r="19"/><circle cx="288" cy="424" r="28"/></g><g fill="#f59e0b"><circle cx="524" cy="402" r="34"/><circle cx="628" cy="512" r="16"/><circle cx="130" cy="486" r="15"/><circle cx="102" cy="310" r="21"/></g></g><g font-family="Inter,Segoe UI,Arial,sans-serif" fill="#7c2d12" text-anchor="middle" font-weight="700"><text x="286" y="105" font-size="14">KNOWLEDGE</text><text x="402" y="201" font-size="14">DECISIONS</text><text x="524" y="407" font-size="14">RELATIONS</text><text x="288" y="429" font-size="14">TASKS</text></g></svg>