<svg xmlns="http://www.w3.org/2000/svg" width="1440" height="560" viewBox="0 0 1440 560" role="img" aria-labelledby="title desc">
<title id="title">Personal AI Workspace</title><desc id="desc">Orange and amber network banner for Personal AI Workspace.</desc>
<defs>
 <linearGradient id="bg" x1="0" y1="0" x2="1" y2="1"><stop offset="0" stop-color="#7c2d12"/><stop offset="0.48" stop-color="#c2410c"/><stop offset="0.78" stop-color="#f59e0b"/><stop offset="1" stop-color="#fff7ed"/></linearGradient>
 <radialGradient id="glow"><stop offset="0" stop-color="#fff" stop-opacity=".8"/><stop offset="1" stop-color="#fff" stop-opacity="0"/></radialGradient>
 <filter id="blur"><feGaussianBlur stdDeviation="28"/></filter>
 <filter id="shadow"><feDropShadow dx="0" dy="12" stdDeviation="18" flood-color="#431407" flood-opacity=".28"/></filter>
</defs>
<rect width="1440" height="560" rx="34" fill="url(#bg)"/>
<circle cx="1120" cy="120" r="190" fill="url(#glow)" filter="url(#blur)" opacity=".55"/>
<circle cx="1290" cy="470" r="230" fill="#fff" opacity=".35" filter="url(#blur)"/>
<g opacity=".42" stroke="#fff" stroke-width="2">
 <path d="M860 98L1030 176L1218 92L1342 216L1186 318L1324 438L1094 454L946 352L784 420"/>
 <path d="M1030 176L946 352M1218 92L1186 318M1342 216L1324 438M860 98L784 420"/>
</g>
<g fill="#fff" filter="url(#shadow)">
 <circle cx="860" cy="98" r="12"/><circle cx="1030" cy="176" r="20"/><circle cx="1218" cy="92" r="14"/><circle cx="1342" cy="216" r="18"/><circle cx="1186" cy="318" r="26"/><circle cx="1324" cy="438" r="12"/><circle cx="1094" cy="454" r="18"/><circle cx="946" cy="352" r="14"/><circle cx="784" cy="420" r="10"/>
</g>
<g fill="#fff" font-family="Inter,Segoe UI,Arial,sans-serif">
 <text x="88" y="176" font-size="26" font-weight="650" opacity=".9">HUMAN-GOVERNED • SOURCE-BACKED • EVOLVING</text>
 <text x="88" y="260" font-size="68" font-weight="800" letter-spacing="-2">Personal AI Workspace</text>
 <text x="88" y="322" font-size="27" font-weight="450" opacity=".94">Persistent context for better decisions, relationships and action.</text>
 <text x="88" y="401" font-size="22" font-weight="650">Latest release  v1.5.1</text>
 <text x="88" y="438" font-size="19" opacity=".82">Created by Michał Poliński &amp; Emma ✨</text>
</g>
</svg>