<svg xmlns="http://www.w3.org/2000/svg" width="720" height="360" viewBox="0 0 720 360" role="img" aria-labelledby="title desc">
  <title id="title">ChatGPT or Codex</title>
  <desc id="desc">A dark connected mark representing ChatGPT and Codex with the product names.</desc>
  <defs>
    <linearGradient id="bg" x1="40" y1="20" x2="680" y2="340" gradientUnits="userSpaceOnUse">
      <stop stop-color="#111827"/>
      <stop offset="1" stop-color="#020617"/>
    </linearGradient>
    <filter id="shadow" x="-20%" y="-20%" width="140%" height="140%">
      <feDropShadow dx="0" dy="18" stdDeviation="18" flood-color="#020617" flood-opacity=".28"/>
    </filter>
  </defs>
  <rect x="18" y="18" width="684" height="324" rx="42" fill="url(#bg)" filter="url(#shadow)"/>
  <g transform="translate(74 74)" stroke="#fff" stroke-width="10" stroke-linecap="round" stroke-linejoin="round" fill="none">
    <path d="M92 3c27 0 50 17 59 41 25-5 52 6 65 29 14 24 10 53-7 72 16 19 19 47 5 70-14 24-41 35-67 29-9 24-32 41-59 41-28 0-51-18-60-43-25 5-51-6-65-29-14-24-10-53 7-72-16-19-19-47-5-70 14-24 41-35 67-29C41 20 64 3 92 3Z"/>
    <path d="M57 59 133 103v88l-76 44M27 103l76 44 76-44M103 147v88M57 59v88l76 44M133 103V15" opacity=".88"/>
  </g>
  <g fill="#fff" font-family="Inter,Segoe UI,Arial,sans-serif">
    <text x="338" y="128" font-size="45" font-weight="800" letter-spacing="-1.8">ChatGPT</text>
    <text x="338" y="184" font-size="22" font-weight="600" fill="#cbd5e1">or</text>
    <text x="338" y="238" font-size="45" font-weight="800" letter-spacing="-1.8">Codex</text>
    <text x="338" y="280" font-size="18" fill="#94a3b8">Your AI workspace surface</text>
  </g>
</svg>